{"title":"Mr. &amp; Mrs. '55 1955 x264 AAC [TMB]","uid":8384894,"size":1116584555,"categoryP":"video","categoryS":"movies","magnet":"?xt=urn:btih:ea7a6bcb2d2fb0fe5a552769234c39468f1f7a4e&amp;dn=Mr.+%26amp%3B+Mrs.+%2755+1955+x264+AAC+%5BTMB%5D&amp;tr=udp%3A%2F%2Ftracker.openbittorrent.com%3A80&amp;tr=udp%3A%2F%2Fopen.demonii.com%3A1337&amp;tr=udp%3A%2F%2Ftracker.coppersurfer.tk%3A6969&amp;tr=udp%3A%2F%2Fexodus.desync.com%3A6969","seeders":1,"leechers":0,"uploader":"SJonam","files":2,"time":1366262979,"description":" &lt;a href=&quot;http://desibbrg.org/images/66952052392581364616.gif&quot; rel=&quot;nofollow&quot; target=&quot;_NEW&quot;&gt;http://desibbrg.org/images/66952052392581364616.gif&lt;/a&gt; &lt;a href=&quot;\nhttp://desibbrg.net/imghost/out.php?i=430917_MRMRS551955OriginalLithographPostersize30x40in..jpg&quot; rel=&quot;nofollow&quot; target=&quot;_NEW&quot;&gt;\nhttp://desibbrg.net/imghost/out.php?i=430917_MRMRS551955OriginalLithographPostersize30x40in..jpg&lt;/a&gt; &lt;a href=&quot;\nhttp://desibbrg.org/images/43600738640888413905.jpg&quot; rel=&quot;nofollow&quot; target=&quot;_NEW&quot;&gt;\nhttp://desibbrg.org/images/43600738640888413905.jpg&lt;/a&gt; &lt;a href=&quot;\nhttp://desibbrg.org/images/58408994276741899806.jpg&quot; rel=&quot;nofollow&quot; target=&quot;_NEW&quot;&gt;\nhttp://desibbrg.org/images/58408994276741899806.jpg&lt;/a&gt; &lt;a href=&quot;\nhttp://desibbrg.org/images/37871266542251084145.jpg&quot; rel=&quot;nofollow&quot; target=&quot;_NEW&quot;&gt;\nhttp://desibbrg.org/images/37871266542251084145.jpg&lt;/a&gt; &lt;a href=&quot;\nhttp://desibbrg.org/images/99397346971239023862.jpg&quot; rel=&quot;nofollow&quot; target=&quot;_NEW&quot;&gt;\nhttp://desibbrg.org/images/99397346971239023862.jpg&lt;/a&gt;\n\nInfo - \nPlot - \nPreetam (Guru Dutt), a struggling cartoonist, meets Anita (Madhubala) at a tennis match, where she is watching her favorite tennis star. Anita, a wealthy and westernized heiress is controlled by her feminist aunt, Sita Devi (Lalita Pawar). Sita is suspicious of men, and cultivates her attitudes in Anita. However, to receive her fortune, her father's will decrees that Anita must marry within one month of turning 21. Sita Devi doesn't agree with this, and tries to set Anita up with a sham marriage which will soon lead to divorce, thereby giving her both freedom and a fortune. Sita hires Preetam to marry Anita, but doesn't know that the pair have already met. Preetam is kept from Anita after their marriage, but he kidnaps her and takes her to the traditional house of his brother.\n\nWhile at the house, Anita befriends Preetam's sister-in-law, and begins to see the merit in becoming a traditional Indian wife. Preetam is worried that he has lost Anita, and expedites their divorce by providing false, incrimiating evidence to the court. Preetam then leaves Mumbai, heartbroken. Anita now recognizes her feelings for Preetam and rushes to meet him at the airport. In the end, the couple is reunited.\n\nCast - \n    Guru Dutt as Preetam Kumar\n    Madhubala as Anita Verma\n    Lalita Pawar as Seeta Devi (Anita's Aunt)\n    Johnny Walker as Johny\n    Yasmin (Vinita Bhatt)\n    Kumkum as Preetam's Bhabhi\n    Tun Tun as Lily D'Silva (as Uma Devi)\n    Cuckoo as Singer (in song &quot;Neele Aasmani&quot;)\n    Agha\n    Bir Sakuja as Mr. Sharma (as Bir Sakhuja)\n    Moni Chatterjee as The Judge (as Moni Chatterji)\n    C.S. Dubey as Doctor\n    Jagdeep as Paper Boy\n\n\nMedia Info - \nVideo\nFormat                         : AVC\nFormat/Info                    : Advanced Video Codec\nFormat profile                 : &lt;a class=&quot;__cf_email__&quot; href=&quot;/cdn-cgi/l/email-protection&quot; data-cfemail=&quot;d19cb0b8bf919de2ffe1&quot;&gt;[email&amp;#160;protected]&lt;/a&gt;&lt;script cf-hash='f9e31' type=&quot;text/javascript&quot;&gt;\n/* &lt;![CDATA[ */!function(){try{var t=&quot;currentScript&quot;in document?document.currentScript:function(){for(var t=document.getElementsByTagName(&quot;script&quot;),e=t.length;e--;)if(t[e].getAttribute(&quot;cf-hash&quot;))return t[e]}();if(t&amp;&amp;t.previousSibling){var e,r,n,i,c=t.previousSibling,a=c.getAttribute(&quot;data-cfemail&quot;);if(a){for(e=&quot;&quot;,r=parseInt(a.substr(0,2),16),n=2;a.length-n;n+=2)i=parseInt(a.substr(n,2),16)^r,e+=String.fromCharCode(i);e=document.createTextNode(e),c.parentNode.replaceChild(e,c)}}}catch(u){}}();/* ]]&gt; */&lt;/script&gt;\nFormat settings, CABAC         : Yes\nFormat settings, ReFrames      : 4 frames\nCodec ID                       : avc1\nCodec ID/Info                  : Advanced Video Coding\nDuration                       : 2h 24mn\nBit rate mode                  : Variable\nBit rate                       : 861 Kbps\nWidth                          : 854 pixels\nHeight                         : 480 pixels\nDisplay aspect ratio           : 16:9\nFrame rate mode                : Constant\nFrame rate                     : 25.000 fps\nColor space                    : YUV\nChroma subsampling             : 4:2:0\nBit depth                      : 8 bits\nScan type                      : Progressive\nBits/(Pixel*Frame)             : 0.084\nStream size                    : 888 MiB (84%)\nWriting library                : x264 core 120\n\nAudio\nFormat                         : AAC\nFormat/Info                    : Advanced Audio Codec\nFormat profile                 : LC\nCodec ID                       : 40\nDuration                       : 2h 24mn\nBit rate mode                  : Variable\nBit rate                       : 160 Kbps\nMaximum bit rate               : 306 Kbps\nChannel(s)                     : 2 channels\nChannel positions              : Front: L R\nSampling rate                  : 44.1 KHz\nCompression mode               : Lossy\nDelay relative to video        : 80ms\nStream size                    : 165 MiB (16%)\n\n[B]Sample in Torrent ;)[/B]\n\nRipper : Saket\n\nSeeding 24x7... Extreme Seeding...\n\n\nEnjoy!\n","torrent":{"xt":"urn:btih:ea7a6bcb2d2fb0fe5a552769234c39468f1f7a4e","amp;dn":"Mr.+%26amp%3B+Mrs.+%2755+1955+x264+AAC+%5BTMB%5D","amp;tr":["udp%3A%2F%2Ftracker.openbittorrent.com%3A80","udp%3A%2F%2Fopen.demonii.com%3A1337","udp%3A%2F%2Ftracker.coppersurfer.tk%3A6969","udp%3A%2F%2Fexodus.desync.com%3A6969"],"infoHash":"ea7a6bcb2d2fb0fe5a552769234c39468f1f7a4e","infoHashBuffer":{"type":"Buffer","data":[234,122,107,203,45,47,176,254,90,85,39,105,35,76,57,70,143,31,122,78]},"announce":[],"urlList":[]}}